<?xml version="1.0" encoding="utf-8"?>
<!-- Generator: Adobe Illustrator 29.8.1, SVG Export Plug-In . SVG Version: 9.03 Build 0)  -->
<svg version="1.1" xmlns="http://www.w3.org/2000/svg" xmlns:xlink="http://www.w3.org/1999/xlink" x="0px" y="0px"
	 viewBox="0 0 1024 1024" style="enable-background:new 0 0 1024 1024;" xml:space="preserve">
<g>
</g>
<g id="_x31___x2013__Layer">
	<g>
		<path style="fill:#E0B3B6;" d="M73.6102905,422.641571h200.7125244c10.7305603,0,18.7818604,3.0037537,24.1528015,9.0105896
			c5.3652649,6.0075378,7.9225159,13.2701721,7.6763306,21.7767944c-0.2513123,8.5121765-3.2470703,16.5203857-8.9867249,24.0294495
			l-100.7306824,129.157135c-5.9915314,7.2633057-13.5453491,10.8884277-22.6551819,10.8884277
			c-9.1160736,0-16.5411072-3.6251221-22.280777-10.8884277l-101.105072-129.157135
			c-5.991539-7.5090637-9.0514107-15.5172729-9.1745071-24.0294495c-0.1287727-8.5066223,2.4925957-15.7692566,7.8641052-21.7767944
			C54.4483757,425.6453247,62.6222115,422.641571,73.6102905,422.641571z"/>
		<path style="fill:#E0B3B6;" d="M921.7696533,512.0006714c0,56.5703735-10.6125488,109.633728-31.8285522,159.1941528
			c-21.2228394,49.5604248-50.5531006,93.1140137-87.999939,130.6586304
			c-37.4467773,37.5460815-80.8840332,66.9547729-130.3116455,88.2331543C622.199585,911.359436,569.270752,922,512.8560181,922
			c-33.4560547,0-66.9705505-4.2581787-100.543457-12.7647705c-33.5791626-8.512207-65.9057922-21.2783813-96.9861145-38.2971802
			c-31.0803223-17.024353-59.4813995-38.173584-85.1902161-63.4519043
			c-17.4771118-17.024353-26.2772217-34.9178467-26.3997498-53.6901855
			c-0.1287689-18.7736816,6.4243622-34.6665039,19.6594086-47.684021
			c14.9782715-14.7654419,31.641922-20.7084351,49.990921-17.8338013
			c18.3484497,2.8809204,35.3865051,11.2042847,51.1141357,24.9673462
			c17.9740601,16.2745972,36.8200073,29.9779663,56.5440979,41.112793
			c19.7178345,11.1403809,40.5004578,19.5886841,62.3478394,25.3435669
			c21.8417053,5.7548218,44.9943848,8.6357422,69.4631348,8.6357422c38.196167,0,73.9570923-7.1335449,107.2832642-21.4005737
			c33.3283691-14.2684326,62.5951538-34.1028442,87.8115845-59.5102539
			c25.211853-25.4025879,44.9370728-54.8175659,59.1665649-88.2331543s21.3430786-69.1428833,21.3430786-107.1929321
			c0-38.2971497-7.1135864-74.1535339-21.3430786-107.5691528s-33.9547119-62.7597656-59.1665649-88.0450134
			c-25.2164307-25.2789917-54.4832153-45.0551147-87.8115845-59.3221436
			c-33.3261719-14.2677155-69.0870972-21.4012299-107.2832642-21.4012299
			c-38.1950684,0-73.8980713,7.1335144-107.0966187,21.4012299c-33.2041626,14.2670288-62.4771729,34.1077271-87.8115845,59.5102844
			c-25.3406372,25.4074097-45.1231689,54.8814087-59.3526306,88.4198608
			c-14.2294769,33.5454407-21.344223,69.460144-21.344223,107.7565918c0,18.5266113-6.5531311,34.2958374-19.6594086,47.3078003
			c-13.1062775,13.0181885-28.7754822,19.5241089-46.995163,19.5241089c-18.4777832,0-34.2048645-6.5059204-47.1823654-19.5241089
			c-12.9837418-13.0119629-19.4722137-28.781189-19.4722137-47.3078003c0-56.8174744,10.543335-110.0675354,31.6419144-159.7570801
			c21.092926-49.6839905,50.4243317-93.3604431,87.9993591-131.0349274
			c37.5688019-37.6689148,81.0712738-67.0783539,130.5005951-88.2324524C403.5124512,112.5774002,456.4350586,102,512.8560181,102
			c56.4147339,0,109.3435669,10.5774002,158.7734985,31.7266388
			c49.4276123,21.1540985,92.8648682,50.5635376,130.3116455,88.2324524
			c37.4468384,37.6744843,66.7770996,81.2863617,87.999939,130.8467865
			C911.1571045,402.3663025,921.7696533,455.4351807,921.7696533,512.0006714z"/>
	</g>
</g>
</svg>
