<?xml version="1.0" encoding="utf-8"?>
<!-- Generator: Adobe Illustrator 29.8.1, SVG Export Plug-In . SVG Version: 9.03 Build 0)  -->
<svg version="1.1" xmlns="http://www.w3.org/2000/svg" xmlns:xlink="http://www.w3.org/1999/xlink" x="0px" y="0px"
	 viewBox="0 0 1024 1024" style="enable-background:new 0 0 1024 1024;" xml:space="preserve">
<g>
</g>
<g id="_x32___x2013__Layer">
	<path style="fill:#1C4286;" d="M477.371521,147.7328339c17.9681396,0,33.4683228,6.5363617,46.5097046,19.5991058
		c13.0250244,13.0727386,19.5437012,28.6170807,19.5437012,46.6317749v493.351593l-99.0816345-304.1205139L686.9944458,732.321167
		c12.1346436,16.2191162,17.4116211,33.4528198,15.8432617,51.6999512
		c-1.5806885,18.2471313-10.0067139,32.5556641-25.2781372,42.9156494
		c-17.0808105,11.7207031-34.4924927,15.9979248-52.2390747,12.840271
		c-17.7546997-3.1463013-33.3651733-13.5162964-46.8435669-31.0874023L429.5150146,612.0237427
		c-6.2980957-8.1095581-10.9001465-16.2190552-13.8174133-24.3286133
		c-2.9284973-8.1108398-4.3815002-16.442749-4.3815002-25.0059204V213.9637146
		c0-18.0146942,6.5084229-33.5590363,19.5467529-46.6317749
		C443.8909607,154.2691956,459.3941956,147.7328339,477.371521,147.7328339z"/>
</g>
</svg>
